<svg width="208" height="58" viewBox="0 0 208 58" fill="none" xmlns="http://www.w3.org/2000/svg">
<rect width="208" height="58" rx="5" fill="#060A11"/>
<path d="M52.9016 30.1092C52.9365 27.4163 54.3908 24.8682 56.6981 23.4577C55.2425 21.3906 52.8046 20.08 50.2682 20.0011C47.5628 19.7187 44.9401 21.6108 43.5616 21.6108C42.1563 21.6108 40.0338 20.0291 37.7481 20.0759C34.7689 20.1716 31.9915 21.8559 30.5421 24.4459C27.4263 29.81 29.7504 37.6935 32.735 42.0294C34.2283 44.1526 35.9735 46.5243 38.2571 46.4402C40.4917 46.348 41.3263 45.0233 44.0236 45.0233C46.696 45.0233 47.479 46.4402 49.8089 46.3867C52.2067 46.348 53.7175 44.2541 55.1583 42.1108C56.2313 40.5979 57.0569 38.9259 57.6046 37.1566C54.7867 35.9715 52.9049 33.1516 52.9016 30.1092Z" fill="white"/>
<path d="M48.5007 17.1495C49.8081 15.5889 50.4523 13.5829 50.2963 11.5576C48.2989 11.7662 46.4538 12.7155 45.1287 14.2163C43.833 15.6826 43.1587 17.6533 43.2862 19.6012C45.2843 19.6217 47.2486 18.6981 48.5007 17.1495Z" fill="white"/>
<path d="M66.7924 21.5H70.0286C73.0599 21.5 75.2173 19.5474 75.2173 16.8028C75.2173 14.0582 73.0599 12.1193 70.0286 12.1193H66.7924V21.5ZM68.1716 20.2438V13.3755H70.1105C72.2816 13.3755 73.7973 14.7956 73.7973 16.8028C73.7973 18.8237 72.2816 20.2438 70.1105 20.2438H68.1716ZM80.334 21.6639C82.3412 21.6639 84.0344 19.9707 84.0344 17.9635C84.0344 15.9562 82.3412 14.2767 80.334 14.2767C78.3131 14.2767 76.6063 15.9562 76.6063 17.9635C76.6063 19.9707 78.3131 21.6639 80.334 21.6639ZM80.334 20.4896C79.0368 20.4896 77.9581 19.3426 77.9581 17.9635C77.9581 16.598 79.0368 15.451 80.334 15.451C81.6038 15.451 82.6826 16.598 82.6826 17.9635C82.6826 19.3426 81.6038 20.4896 80.334 20.4896ZM87.1114 21.5H88.354L90.0608 16.2566L91.754 21.5H92.9966L95.3725 14.4406H93.9934L92.3821 19.6976L90.6343 14.4406H89.4873L87.7396 19.6976L86.1147 14.4406H84.7355L87.1114 21.5ZM100.328 14.2767C99.3724 14.2767 98.5122 14.7683 98.0889 15.4647V14.4406H96.7371V21.5H98.0889V16.9257C98.1981 16.0928 99.0447 15.451 100.028 15.451C100.984 15.451 101.653 16.1884 101.653 17.2398V21.5H102.977V17.0076C102.977 15.41 101.885 14.2767 100.328 14.2767ZM104.911 21.5H106.249V11.9554H104.911V21.5ZM111.564 21.6639C113.571 21.6639 115.264 19.9707 115.264 17.9635C115.264 15.9562 113.571 14.2767 111.564 14.2767C109.543 14.2767 107.836 15.9562 107.836 17.9635C107.836 19.9707 109.543 21.6639 111.564 21.6639ZM111.564 20.4896C110.266 20.4896 109.188 19.3426 109.188 17.9635C109.188 16.598 110.266 15.451 111.564 15.451C112.833 15.451 113.912 16.598 113.912 17.9635C113.912 19.3426 112.833 20.4896 111.564 20.4896ZM119.809 14.2767C119.03 14.2767 118.143 14.4815 117.132 14.9868L117.624 15.9835C118.238 15.6695 118.921 15.3964 119.617 15.3964C121.024 15.3964 121.434 16.3386 121.434 17.2261V17.4446C120.751 17.2125 120 17.0623 119.303 17.0623C117.747 17.0623 116.477 18.0044 116.477 19.4108C116.477 20.79 117.583 21.6639 119.085 21.6639C119.945 21.6639 120.915 21.2679 121.434 20.5305V21.5H122.758V17.2261C122.758 15.4783 121.707 14.2767 119.809 14.2767ZM119.344 20.5988C118.457 20.5988 117.774 20.1345 117.774 19.3699C117.774 18.6052 118.566 18.0727 119.508 18.0727C120.205 18.0727 120.86 18.1683 121.434 18.3458V19.288C121.201 20.1618 120.218 20.5988 119.344 20.5988ZM130.148 11.9554V15.6558C129.601 14.7956 128.727 14.2767 127.635 14.2767C125.778 14.2767 124.385 15.806 124.385 17.9635C124.385 20.1345 125.778 21.6639 127.635 21.6639C128.727 21.6639 129.601 21.145 130.148 20.2711V21.5H131.486V11.9554H130.148ZM127.963 20.4896C126.666 20.4896 125.751 19.4382 125.751 17.9635C125.751 16.4888 126.666 15.451 127.963 15.451C129.233 15.451 130.148 16.4888 130.148 17.9635C130.148 19.4382 129.233 20.4896 127.963 20.4896ZM140.766 21.6639C142.773 21.6639 144.467 19.9707 144.467 17.9635C144.467 15.9562 142.773 14.2767 140.766 14.2767C138.745 14.2767 137.039 15.9562 137.039 17.9635C137.039 19.9707 138.745 21.6639 140.766 21.6639ZM140.766 20.4896C139.469 20.4896 138.39 19.3426 138.39 17.9635C138.39 16.598 139.469 15.451 140.766 15.451C142.036 15.451 143.115 16.598 143.115 17.9635C143.115 19.3426 142.036 20.4896 140.766 20.4896ZM149.639 14.2767C148.684 14.2767 147.823 14.7683 147.4 15.4647V14.4406H146.048V21.5H147.4V16.9257C147.509 16.0928 148.356 15.451 149.339 15.451C150.295 15.451 150.964 16.1884 150.964 17.2398V21.5H152.288V17.0076C152.288 15.41 151.196 14.2767 149.639 14.2767ZM161.434 20.2301C161.284 20.3803 161.011 20.4896 160.71 20.4896C160.314 20.4896 159.986 20.1345 159.986 19.643V15.5876H161.652V14.4406H159.986V12.5016H158.662V14.4406H157.597V15.5876H158.662V19.7386C158.662 20.8719 159.427 21.6639 160.519 21.6639C161.024 21.6639 161.543 21.4727 161.925 21.1586L161.434 20.2301ZM166.894 14.2767C165.925 14.2767 165.065 14.7819 164.641 15.492V11.9554H163.303V21.5H164.641V17.1169C164.641 16.202 165.529 15.451 166.594 15.451C167.55 15.451 168.219 16.1884 168.219 17.2398V21.5H169.543V17.0076C169.543 15.41 168.451 14.2767 166.894 14.2767ZM174.713 20.4623C173.498 20.4623 172.638 19.6157 172.46 18.4414H178.018C178.018 15.9153 176.775 14.2767 174.618 14.2767C172.665 14.2767 171.095 15.8333 171.095 17.9498C171.095 20.1209 172.761 21.6639 174.727 21.6639C175.724 21.6639 176.953 21.2406 177.581 20.5715L176.734 19.6976C176.311 20.1345 175.451 20.4623 174.713 20.4623ZM174.673 15.4783C175.888 15.4783 176.557 16.2703 176.707 17.3627H172.474C172.693 16.2157 173.58 15.4783 174.673 15.4783Z" fill="white"/>
<path d="M76.5391 43.3833H79.7124L74.3598 30.2503H71.2056L65.853 43.3833H69.0072L69.8483 41.3187H75.698L76.5391 43.3833ZM70.8233 38.9292L72.7732 34.1309L74.723 38.9292H70.8233ZM87.2821 33.2707C85.9057 33.2707 84.7587 33.8633 83.9749 34.8765V33.5001H81.1839V46.6713H83.9749V41.9878C84.7587 43.0201 85.9057 43.6127 87.2821 43.6127C89.9202 43.6127 91.8318 41.4717 91.8318 38.4321C91.8318 35.4117 89.9202 33.2707 87.2821 33.2707ZM86.4792 41.2614C85.1219 41.2614 84.1279 40.2673 83.9749 38.8145V38.0498C84.1279 36.6161 85.1219 35.622 86.4792 35.622C88.0276 35.622 89.1173 36.7881 89.1173 38.4321C89.1173 40.0953 88.0276 41.2614 86.4792 41.2614ZM99.9019 33.2707C98.5255 33.2707 97.3785 33.8633 96.5948 34.8765V33.5001H93.8038V46.6713H96.5948V41.9878C97.3785 43.0201 98.5255 43.6127 99.9019 43.6127C102.54 43.6127 104.452 41.4717 104.452 38.4321C104.452 35.4117 102.54 33.2707 99.9019 33.2707ZM99.099 41.2614C97.7418 41.2614 96.7477 40.2673 96.5948 38.8145V38.0498C96.7477 36.6161 97.7418 35.622 99.099 35.622C100.647 35.622 101.737 36.7881 101.737 38.4321C101.737 40.0953 100.647 41.2614 99.099 41.2614ZM116.81 43.6127C120.021 43.6127 121.914 41.9496 121.914 39.4453C121.914 37.0175 120.04 36.1764 117.211 35.5456C115.185 35.0868 114.401 34.7809 114.401 33.8251C114.401 33.0413 115.127 32.4105 116.332 32.4105C117.593 32.4105 118.912 32.9266 120.078 33.8633L121.55 31.837C120.212 30.69 118.549 30.0209 116.408 30.0209C113.541 30.0209 111.552 31.684 111.552 34.1118C111.552 36.6543 113.521 37.4381 116.293 38.0689C118.301 38.5277 119.065 38.8145 119.065 39.7512C119.065 40.5732 118.339 41.2231 116.924 41.2231C115.261 41.2231 113.846 40.5732 112.604 39.5027L110.979 41.4334C112.508 42.848 114.535 43.6127 116.81 43.6127ZM129.06 40.9364C128.868 41.1276 128.486 41.2614 128.104 41.2614C127.588 41.2614 127.167 40.8026 127.167 40.1526V35.7558H129.308V33.5001H127.167V30.7856H124.491V33.5001H123.133V35.7558H124.491V40.5923C124.491 42.3701 125.714 43.6127 127.454 43.6127C128.257 43.6127 129.155 43.2686 129.729 42.7525L129.06 40.9364ZM136.332 43.6127C139.257 43.6127 141.704 41.2423 141.704 38.4321C141.704 35.622 139.257 33.2707 136.332 33.2707C133.388 33.2707 130.922 35.622 130.922 38.4321C130.922 41.2423 133.388 43.6127 136.332 43.6127ZM136.332 41.2614C134.841 41.2614 133.599 39.9615 133.599 38.4321C133.599 36.9028 134.841 35.622 136.332 35.622C137.804 35.622 139.047 36.9028 139.047 38.4321C139.047 39.9615 137.804 41.2614 136.332 41.2614ZM146.383 35.3353V33.5001H143.592V43.3833H146.383V38.6615C146.383 36.8072 147.702 35.622 149.767 35.622V33.2707C148.257 33.2707 147.033 34.0545 146.383 35.3353ZM156.042 41.1467C154.875 41.1467 154.015 40.4203 153.69 39.3497H160.821C160.821 35.622 159.005 33.2707 155.908 33.2707C153.021 33.2707 150.823 35.4309 150.823 38.413C150.823 41.4525 153.117 43.6127 156.061 43.6127C157.513 43.6127 159.215 43.001 160.094 42.0834L158.316 40.2673C157.781 40.7835 156.825 41.1467 156.042 41.1467ZM156.022 35.7367C157.15 35.7367 157.877 36.3676 158.144 37.3425H153.728C154.092 36.3485 154.971 35.7367 156.022 35.7367Z" fill="white"/>
</svg>
