<svg width="208" height="58" viewBox="0 0 208 58" fill="none" xmlns="http://www.w3.org/2000/svg">
<rect width="208" height="58" rx="5" fill="#060A11"/>
<g filter="url(#filter0_ii_1_2625)">
<path d="M28.2001 11.982C27.8027 12.4026 27.5679 13.0553 27.5679 13.9005V44.099C27.5679 44.9456 27.8027 45.5969 28.2001 46.0175L28.3011 46.1158L45.2178 29.1991V28.9997V28.8004L28.3011 11.8823L28.2001 11.982Z" fill="url(#paint0_linear_1_2625)"/>
<path d="M50.8587 34.8399L45.2207 29.1992V28.9998V28.8005L50.8601 23.1611L50.987 23.2335L57.6682 27.0295C59.5758 28.1137 59.5758 29.8874 57.6682 30.9729L50.987 34.7689L50.8587 34.8399Z" fill="url(#paint1_linear_1_2625)"/>
<g filter="url(#filter1_i_1_2625)">
<path d="M50.9877 34.7672L45.22 28.9995L28.2036 46.0172C28.8317 46.6836 29.8708 46.7655 31.041 46.1019L50.9877 34.7672Z" fill="url(#paint2_linear_1_2625)"/>
</g>
<path d="M50.9877 23.2322L31.041 11.8988C29.8708 11.2339 28.8317 11.3172 28.2036 11.9835L45.2213 29.0012L50.9877 23.2322Z" fill="url(#paint3_linear_1_2625)"/>
</g>
<path d="M72.4517 17.6494H74.9642V19.6157C74.3224 20.1072 73.4349 20.394 72.6429 20.394C70.7586 20.394 69.1746 18.7554 69.1746 16.8028C69.1746 14.8639 70.7586 13.2253 72.6429 13.2253C73.6124 13.2253 74.7184 13.6623 75.3602 14.3586L76.3296 13.4301C75.4421 12.5153 73.9674 11.9554 72.6429 11.9554C70.0076 11.9554 67.7545 14.1675 67.7545 16.8028C67.7545 19.4382 70.0076 21.6639 72.6429 21.6639C73.9674 21.6639 75.4421 21.0904 76.3296 20.1892V16.4478H72.4517V17.6494ZM81.4793 20.4623C80.2641 20.4623 79.4038 19.6157 79.2263 18.4414H84.7837C84.7837 15.9153 83.5412 14.2767 81.3838 14.2767C79.4311 14.2767 77.8609 15.8333 77.8609 17.9498C77.8609 20.1209 79.5267 21.6639 81.493 21.6639C82.4898 21.6639 83.7187 21.2406 84.3468 20.5715L83.5002 19.6976C83.0769 20.1345 82.2167 20.4623 81.4793 20.4623ZM81.4384 15.4783C82.6536 15.4783 83.3227 16.2703 83.4729 17.3627H79.24C79.4585 16.2157 80.346 15.4783 81.4384 15.4783ZM89.655 20.2301C89.5048 20.3803 89.2317 20.4896 88.9313 20.4896C88.5353 20.4896 88.2076 20.1345 88.2076 19.643V15.5876H89.8735V14.4406H88.2076V12.5016H86.8831V14.4406H85.8181V15.5876H86.8831V19.7386C86.8831 20.8719 87.6478 21.6639 88.7402 21.6639C89.2454 21.6639 89.7643 21.4727 90.1466 21.1586L89.655 20.2301ZM96.1005 13.2663C96.5375 13.2663 96.9061 12.8839 96.9061 12.447C96.9061 12.0237 96.5375 11.6414 96.1005 11.6414C95.6363 11.6414 95.2812 12.0237 95.2812 12.447C95.2812 12.8839 95.6363 13.2663 96.1005 13.2663ZM95.4178 21.5H96.7696V14.4406H95.4178V21.5ZM102.03 20.2301C101.879 20.3803 101.606 20.4896 101.306 20.4896C100.91 20.4896 100.582 20.1345 100.582 19.643V15.5876H102.248V14.4406H100.582V12.5016H99.2576V14.4406H98.1926V15.5876H99.2576V19.7386C99.2576 20.8719 100.022 21.6639 101.115 21.6639C101.62 21.6639 102.139 21.4727 102.521 21.1586L102.03 20.2301ZM112.353 21.6639C114.988 21.6639 117.2 19.4382 117.2 16.8028C117.2 14.1675 114.988 11.9554 112.353 11.9554C109.718 11.9554 107.478 14.1675 107.478 16.8028C107.478 19.4382 109.718 21.6639 112.353 21.6639ZM112.353 20.394C110.482 20.394 108.898 18.7554 108.898 16.8028C108.898 14.8639 110.482 13.2253 112.353 13.2253C114.224 13.2253 115.794 14.8639 115.794 16.8028C115.794 18.7554 114.224 20.394 112.353 20.394ZM122.438 14.2767C121.482 14.2767 120.622 14.7683 120.199 15.4647V14.4406H118.847V21.5H120.199V16.9257C120.308 16.0928 121.155 15.451 122.138 15.451C123.094 15.451 123.763 16.1884 123.763 17.2398V21.5H125.087V17.0076C125.087 15.41 123.995 14.2767 122.438 14.2767Z" fill="white"/>
<path d="M74.4207 38.2027H77.4793V40.21C76.7338 40.7452 75.8162 41.0511 74.9177 41.0511C72.6811 41.0511 70.7886 39.1012 70.7886 36.8072C70.7886 34.5324 72.6811 32.5825 74.9177 32.5825C76.1221 32.5825 77.4029 33.156 78.1867 34.0545L80.2321 32.2193C78.9131 30.8429 76.8867 30.0209 74.9177 30.0209C71.1136 30.0209 67.8829 33.1178 67.8829 36.8072C67.8829 40.4967 71.1136 43.6127 74.9177 43.6127C76.8867 43.6127 78.9131 42.7907 80.2321 41.4143V36.0044H74.4207V38.2027ZM87.3848 43.6127C90.3096 43.6127 92.7565 41.2423 92.7565 38.4321C92.7565 35.622 90.3096 33.2707 87.3848 33.2707C84.4409 33.2707 81.9748 35.622 81.9748 38.4321C81.9748 41.2423 84.4409 43.6127 87.3848 43.6127ZM87.3848 41.2614C85.8937 41.2614 84.6511 39.9615 84.6511 38.4321C84.6511 36.9028 85.8937 35.622 87.3848 35.622C88.8568 35.622 90.0993 36.9028 90.0993 38.4321C90.0993 39.9615 88.8568 41.2614 87.3848 41.2614ZM99.5006 43.6127C102.425 43.6127 104.872 41.2423 104.872 38.4321C104.872 35.622 102.425 33.2707 99.5006 33.2707C96.5567 33.2707 94.0906 35.622 94.0906 38.4321C94.0906 41.2423 96.5567 43.6127 99.5006 43.6127ZM99.5006 41.2614C98.0095 41.2614 96.7669 39.9615 96.7669 38.4321C96.7669 36.9028 98.0095 35.622 99.5006 35.622C100.973 35.622 102.215 36.9028 102.215 38.4321C102.215 39.9615 100.973 41.2614 99.5006 41.2614ZM113.91 33.5001V34.8383C113.241 33.9015 111.98 33.2707 110.641 33.2707C108.156 33.2707 106.264 35.2015 106.264 37.9542C106.264 40.707 108.156 42.6569 110.641 42.6569C111.941 42.6569 113.127 42.0834 113.91 41.1276V42.2172C113.91 43.498 112.763 44.32 110.966 44.32C109.819 44.32 108.672 43.9568 108.022 43.3833L107.048 45.3523C108.022 46.117 109.666 46.6713 111.406 46.6713C114.522 46.6713 116.72 44.8744 116.72 42.3319V33.5001H113.91ZM111.521 40.3056C110.125 40.3056 109.131 39.3306 109.131 37.9542C109.131 36.5778 110.125 35.622 111.521 35.622C112.916 35.622 113.91 36.5778 113.91 37.9542C113.91 39.3306 112.916 40.3056 111.521 40.3056ZM119.175 43.3833H121.966V30.0209H119.175V43.3833ZM129.067 41.1467C127.901 41.1467 127.041 40.4203 126.716 39.3497H133.846C133.846 35.622 132.03 33.2707 128.933 33.2707C126.046 33.2707 123.848 35.4309 123.848 38.413C123.848 41.4525 126.142 43.6127 129.086 43.6127C130.539 43.6127 132.24 43.001 133.12 42.0834L131.342 40.2673C130.806 40.7835 129.851 41.1467 129.067 41.1467ZM129.048 35.7367C130.176 35.7367 130.902 36.3676 131.17 37.3425H126.754C127.117 36.3485 127.996 35.7367 129.048 35.7367ZM141.15 43.3833H143.96V39.1203H147.057C149.905 39.1203 152.008 37.2852 152.008 34.6853C152.008 32.0855 149.905 30.2503 147.057 30.2503H141.15V43.3833ZM143.96 36.5396V32.831H146.751C148.146 32.831 149.102 33.5575 149.102 34.6853C149.102 35.8132 148.146 36.5396 146.751 36.5396H143.96ZM153.693 43.3833H156.484V30.0209H153.693V43.3833ZM163.336 33.2707C161.96 33.2707 160.603 33.653 159.207 34.3603L160.144 36.2146C160.928 35.8132 161.788 35.5073 162.705 35.5073C164.33 35.5073 164.98 36.4249 164.98 37.4763V37.6675C164.139 37.3425 163.26 37.1705 162.457 37.1705C160.163 37.1705 158.347 38.5086 158.347 40.4585C158.347 42.351 159.972 43.6127 162.075 43.6127C163.145 43.6127 164.273 43.1921 164.98 42.3892V43.3833H167.676V37.4763C167.676 34.8956 165.917 33.2707 163.336 33.2707ZM162.705 41.6819C161.75 41.6819 161.042 41.1849 161.042 40.382C161.042 39.5791 161.845 38.9865 162.858 38.9865C163.623 38.9865 164.349 39.1203 164.98 39.3497V40.2673C164.789 41.1849 163.776 41.6819 162.705 41.6819ZM172.284 46.8243C173.832 46.8243 175.094 45.8111 175.839 43.8803L179.892 33.5001H177.044L174.578 40.4394L171.978 33.5001H169.091L173.201 43.4789L172.857 44.2053C172.647 44.5685 172.226 44.7406 171.691 44.7406C171.366 44.7406 170.869 44.5685 170.391 44.3009L169.799 46.2125C170.468 46.5757 171.462 46.8243 172.284 46.8243Z" fill="white"/>
<defs>
<filter id="filter0_ii_1_2625" x="27.5679" y="11.4399" width="31.5312" height="35.1201" filterUnits="userSpaceOnUse" color-interpolation-filters="sRGB">
<feFlood flood-opacity="0" result="BackgroundImageFix"/>
<feBlend mode="normal" in="SourceGraphic" in2="BackgroundImageFix" result="shape"/>
<feColorMatrix in="SourceAlpha" type="matrix" values="0 0 0 0 0 0 0 0 0 0 0 0 0 0 0 0 0 0 127 0" result="hardAlpha"/>
<feOffset dy="-0.204819"/>
<feComposite in2="hardAlpha" operator="arithmetic" k2="-1" k3="1"/>
<feColorMatrix type="matrix" values="0 0 0 0 0 0 0 0 0 0 0 0 0 0 0 0 0 0 0.12 0"/>
<feBlend mode="normal" in2="shape" result="effect1_innerShadow_1_2625"/>
<feColorMatrix in="SourceAlpha" type="matrix" values="0 0 0 0 0 0 0 0 0 0 0 0 0 0 0 0 0 0 127 0" result="hardAlpha"/>
<feOffset dy="0.204819"/>
<feComposite in2="hardAlpha" operator="arithmetic" k2="-1" k3="1"/>
<feColorMatrix type="matrix" values="0 0 0 0 1 0 0 0 0 1 0 0 0 0 1 0 0 0 0.25 0"/>
<feBlend mode="normal" in2="effect1_innerShadow_1_2625" result="effect2_innerShadow_1_2625"/>
</filter>
<filter id="filter1_i_1_2625" x="28.2036" y="28.9995" width="22.7842" height="17.5605" filterUnits="userSpaceOnUse" color-interpolation-filters="sRGB">
<feFlood flood-opacity="0" result="BackgroundImageFix"/>
<feBlend mode="normal" in="SourceGraphic" in2="BackgroundImageFix" result="shape"/>
<feColorMatrix in="SourceAlpha" type="matrix" values="0 0 0 0 0 0 0 0 0 0 0 0 0 0 0 0 0 0 127 0" result="hardAlpha"/>
<feOffset dy="-0.204819"/>
<feComposite in2="hardAlpha" operator="arithmetic" k2="-1" k3="1"/>
<feColorMatrix type="matrix" values="0 0 0 0 0 0 0 0 0 0 0 0 0 0 0 0 0 0 0.08 0"/>
<feBlend mode="normal" in2="shape" result="effect1_innerShadow_1_2625"/>
</filter>
<linearGradient id="paint0_linear_1_2625" x1="43.7183" y1="13.581" x2="20.8031" y2="36.4961" gradientUnits="userSpaceOnUse">
<stop stop-color="#00A0FF"/>
<stop offset="0.0066" stop-color="#00A1FF"/>
<stop offset="0.2601" stop-color="#00BEFF"/>
<stop offset="0.5122" stop-color="#00D2FF"/>
<stop offset="0.7604" stop-color="#00DFFF"/>
<stop offset="1" stop-color="#00E3FF"/>
</linearGradient>
<linearGradient id="paint1_linear_1_2625" x1="60.1513" y1="28.9998" x2="27.1128" y2="28.9998" gradientUnits="userSpaceOnUse">
<stop stop-color="#FFE000"/>
<stop offset="0.4087" stop-color="#FFBD00"/>
<stop offset="0.7754" stop-color="#FFA500"/>
<stop offset="1" stop-color="#FF9C00"/>
</linearGradient>
<linearGradient id="paint2_linear_1_2625" x1="47.8554" y1="32.1317" x2="16.7796" y2="63.2076" gradientUnits="userSpaceOnUse">
<stop stop-color="#FF3A44"/>
<stop offset="1" stop-color="#C31162"/>
</linearGradient>
<linearGradient id="paint3_linear_1_2625" x1="23.918" y1="1.93071" x2="37.7942" y2="15.8069" gradientUnits="userSpaceOnUse">
<stop stop-color="#32A071"/>
<stop offset="0.0685" stop-color="#2DA771"/>
<stop offset="0.4762" stop-color="#15CF74"/>
<stop offset="0.8009" stop-color="#06E775"/>
<stop offset="1" stop-color="#00F076"/>
</linearGradient>
</defs>
</svg>
